# xmcd CD database file
#
# Track frame offsets:
#	150
#	30917
#	52590
#	77890
#	103982
#	151872
#
# Disc length: 2764 seconds
#
# Revision: 5
# Processed by: cddbd v1.5.2PL0 Copyright (c) Steve Scherf et al.
# Submitted via: CDex 1.51
#
DISCID=370aca06
DTITLE=Johnny Winter - Captured Live!
DYEAR=1976
DGENRE=Blues Rock
TTITLE0=Bony Moronie
TTITLE1=Roll With Me
TTITLE2=Rock and Roll People
TTITLE3=It's All Over Now
TTITLE4=Highway 61 Revisited
TTITLE5=Sweet Papa John
EXTD=YEAR: 1976
EXTT0=
EXTT1=
EXTT2=
EXTT3=
EXTT4=
EXTT5=
PLAYORDER=
